<?xml version="1.0" standalone="no"?>
<!DOCTYPE svg PUBLIC "-//W3C//DTD SVG 1.1//EN" "http://www.w3.org/Graphics/SVG/1.1/DTD/svg11.dtd" >
<svg xmlns="http://www.w3.org/2000/svg">
<metadata>Generated by IcoMoon</metadata>
<defs>
<font id="icomoon" horiz-adv-x="1024">
<font-face units-per-em="1024" ascent="960" descent="-64" />
<missing-glyph horiz-adv-x="1024" />
<glyph unicode="&#x20;" horiz-adv-x="512" d="" />
<glyph unicode="&#xe900;" glyph-name="refresh" d="M964.896 361.867c0 1.152 0.16 2.272 0.16 3.424h-0.864c-2.048 20.864-19.072 37.376-40.48 37.376s-38.432-16.512-40.48-37.376h-0.224c0-0.48-0.064-0.928-0.064-1.376-0.064-0.864-0.512-1.6-0.512-2.496 0-0.544 0.288-0.96 0.288-1.504-2.912-200.736-166.848-363.296-368.384-363.296-203.36 0-368.672 165.312-368.672 368.672 0 196.448 154.528 356.992 348.416 367.648v-111.616c0-3.584 1.92-7.040 5.12-8.832 1.536-0.896 3.328-1.408 5.12-1.408s3.456 0.384 5.12 1.408l234.016 153.632c3.2 1.792 5.12 5.248 5.12 8.832s-1.92 7.040-5.12 8.832l-234.016 153.504c-3.2 1.792-7.040 1.792-10.24 0s-5.12-5.248-5.12-8.832v-113.632c-238.88-10.784-430.080-207.968-430.080-449.536 0-248.448 202.080-450.528 450.528-450.528 246.912 0 447.776 199.584 450.304 445.92 0 0.256 0.16 0.48 0.16 0.736 0 0.16-0.064 0.288-0.096 0.448z" />
<glyph unicode="&#xe901;" glyph-name="up" d="M61.344 149.355c-15.584 0.032-31.168 6.048-43.040 17.984-23.744 23.904-23.648 62.4 0.256 86.144l451.744 449.088c23.904 23.744 62.4 23.648 86.144-0.256l449.152-451.712c23.744-23.904 23.648-62.4-0.256-86.144s-62.4-23.648-86.144 0.256l-406.208 408.48-408.512-406.112c-11.936-11.872-27.552-17.792-43.136-17.728z" />
<glyph unicode="&#xe903;" glyph-name="success-bg" d="M512.512 939.659c-283.040 0-512.512-229.472-512.512-512.48 0-283.072 229.472-512.512 512.512-512.512s512.512 229.44 512.512 512.512c-0.032 283.008-229.472 512.48-512.512 512.48zM717.248 605.451c0 0-226.080-393.76-229.952-397.408-12.928-12.064-33.184-11.424-45.28 1.472l-146.432 135.072c-12.096 12.928-11.424 33.184 1.472 45.28 12.896 12.064 33.184 11.424 45.28-1.472l114.624-105.728 204.832 354.816c8.864 15.328 28.448 20.576 43.776 11.744 15.296-8.896 20.544-28.48 11.68-43.776z" />
<glyph unicode="&#xe904;" glyph-name="ucheck-active" d="M832 938.667h-640c-106.048 0-192-85.952-192-192v-640c0-106.048 85.952-192 192-192h640c106.048 0 192 85.952 192 192v640c0 106.048-85.952 192-192 192zM827.424 635.531c0 0-313.696-450.368-319.072-455.456-17.92-16.736-46.048-15.84-62.816 2.048l-235.2 219.424c-16.8 17.92-15.872 46.048 2.048 62.848 17.92 16.736 46.016 15.84 62.816-2.048l191.040-178.688 284.224 396.32c12.288 21.28 39.456 28.544 60.736 16.288 21.216-12.288 28.512-39.456 16.224-60.736z" />
<glyph unicode="&#xe905;" glyph-name="ucheck" d="M832 938.667h-640c-106.048 0-192-85.952-192-192v-640c0-106.048 85.952-192 192-192h640c106.048 0 192 85.952 192 192v640c0 106.048-85.952 192-192 192zM928 106.667c0-53.024-42.976-96-96-96h-640c-53.024 0-96 42.976-96 96v640c0 53.024 42.976 96 96 96h640c53.024 0 96-42.976 96-96v-640z" />
<glyph unicode="&#xe906;" glyph-name="question" d="M512.704 940.011c-282.72 0-512.704-229.984-512.704-512.64 0-282.72 229.984-512.704 512.704-512.704 282.656 0 512.704 229.984 512.704 512.672-0.032 282.688-230.016 512.672-512.704 512.672zM512.704-12.085c-242.304 0-439.424 197.12-439.424 439.424s197.12 439.424 439.424 439.424c242.304 0 439.424-197.12 439.424-439.424s-197.12-439.424-439.424-439.424zM472.48 214.155h80.832v-80.832h-80.832v80.832zM513.472 721.355c-53.376 0-96.32-14.336-128.768-43.008s-51.968-69.92-58.56-123.84l72.96-8.672c6.336 40.256 19.584 69.792 39.84 88.704s45.504 28.416 75.712 28.416c31.296 0 57.76-10.496 79.296-31.36s32.32-45.152 32.32-72.768c0-15.264-3.712-29.344-11.040-42.208s-23.36-30.144-47.936-51.84c-24.576-21.664-41.6-38.24-51.008-49.536-12.864-15.552-22.208-30.88-28-46.176-7.872-20.256-11.84-44.288-11.84-72.16 0-4.704 0.128-11.776 0.416-21.28h68.192c0.544 28.416 2.496 48.864 5.92 61.504s8.736 23.744 15.808 33.504c7.072 9.76 22.208 24.832 45.312 45.44 34.4 30.496 57.536 56.416 69.376 77.664 11.84 21.28 17.76 44.544 17.76 69.792 0 43.616-16.832 80.832-50.464 111.584-33.664 30.848-78.784 46.24-135.296 46.24z" />
<glyph unicode="&#xe907;" glyph-name="sub" d="M512-61.583c-269.654-0.003-488.253 218.596-488.25 488.25 0 269.651 218.596 488.248 488.25 488.25 269.649-0.002 488.25-218.599 488.25-488.25-0.002-269.654-218.599-488.25-488.25-488.25zM930.501 426.667c-0.003 231.129-187.372 418.498-418.501 418.501-231.132 0-418.501-187.369-418.501-418.501s187.369-418.501 418.501-418.496c231.132-0.005 418.501 187.364 418.501 418.496zM233.003 391.792v69.749l558 0.001-0.003-69.752-557.997 0.002z" />
<glyph unicode="&#xe908;" glyph-name="phone" d="M719.597-14.586c-56.935 0-130.441 37.932-182.080 69.755-69.156 42.618-143.658 101.57-209.78 165.998l-0.241 0.238-20.996 21c-64.428 66.121-123.38 140.624-165.998 209.782-31.822 51.638-69.755 125.144-69.755 182.079 0 60.926 43.569 125.596 62.301 150.572 14.618 19.49 65.684 83.082 109.074 83.082 17.815 0 37.005-11.661 62.222-37.812 22.301-23.126 43.705-51.87 57.733-71.911 18.836-26.908 36.257-55.082 49.055-79.332 20.726-39.271 23.123-56.109 23.123-65.359 0-18.669-9.749-34.86-28.974-48.123-12.661-8.734-27.859-15.308-42.557-21.665-9.91-4.287-25.736-11.132-31.774-15.943 2.105-8.921 11.313-30.466 36.191-66.991 23.184-34.037 53.164-70.923 80.246-98.734 27.806-27.081 64.688-57.061 98.73-80.245 36.518-24.872 58.063-34.081 66.986-36.188 4.812 6.039 11.657 21.863 15.944 31.773 6.358 14.698 12.933 29.898 21.668 42.558 13.264 19.225 29.456 28.974 48.125 28.974 9.249 0 26.086-2.397 65.358-23.123 24.25-12.798 52.424-30.221 79.331-49.055 20.040-14.028 48.784-35.432 71.911-57.733 26.151-25.215 37.812-44.405 37.812-62.221 0-43.391-63.592-94.458-83.081-109.075-24.977-18.731-89.646-62.301-150.574-62.301zM364.224 258.37c63.433-61.791 134.676-118.194 200.631-158.839 63.946-39.407 120.348-62.007 154.742-62.007 30.637 0 74.317 18.71 116.842 50.048 18.645 13.739 35.613 29.040 47.78 43.086 11.418 13.181 15.59 21.778 16.653 25.254-4.411 9.477-30.619 39.113-91.788 81.31-23.993 16.551-48.799 31.761-69.849 42.828-26.433 13.896-37.445 16.295-39.969 16.69-0.977-0.67-3.86-3.080-8.232-10.414-4.899-8.218-9.608-19.1-14.16-29.626-5.606-12.96-11.403-26.359-18.513-37.173-11.564-17.59-25.762-26.512-42.198-26.518-0.299-0.002-0.609 0.003-0.922 0.010-8.001 0.171-32.353 0.691-98.46 45.716-36.501 24.861-76.133 57.099-106.013 86.237l-0.465 0.465c-29.138 29.885-61.374 69.515-86.233 106.011-45.030 66.111-45.549 90.461-45.719 98.462-0.359 16.734 8.47 31.184 26.241 42.947 10.865 7.192 24.377 13.036 37.443 18.688 10.524 4.551 21.406 9.259 29.622 14.156 7.333 4.371 9.745 7.255 10.415 8.231-0.396 2.524-2.794 13.536-16.69 39.967-11.066 21.050-26.276 45.857-42.827 69.849-42.198 61.17-71.835 87.377-81.312 91.79-3.476-1.063-12.072-5.235-25.254-16.653-14.046-12.168-29.346-29.136-43.085-47.78-31.338-42.527-50.048-86.206-50.048-116.842 0-34.393 22.601-90.793 62.007-154.741 40.645-65.956 97.049-137.2 158.84-200.632l20.521-20.52z" />
<glyph unicode="&#xe909;" glyph-name="point2" d="M732.694 766.066c-58.949 58.95-137.326 91.415-220.694 91.415s-161.745-32.465-220.693-91.415c-58.949-58.95-91.415-137.327-91.415-220.693 0-56.678 15.353-112.189 44.399-160.532l0.027 0.015c9.81-20.77 78.189-160.284 247.080-386.769 0.622-0.845 1.301-1.659 2.035-2.432 0.085-0.090 0.173-0.176 0.259-0.264 0.225-0.23 0.453-0.458 0.689-0.682 0.166-0.158 0.335-0.312 0.503-0.465 0.149-0.134 0.301-0.267 0.454-0.399 0.226-0.195 0.455-0.387 0.688-0.573 0.086-0.069 0.174-0.135 0.261-0.203 0.8-0.623 1.631-1.194 2.489-1.712 0.067-0.041 0.134-0.082 0.201-0.122 1.067-0.63 2.171-1.183 3.307-1.648 0.193-0.080 0.388-0.151 0.582-0.225 0.344-0.131 0.689-0.255 1.037-0.37 0.242-0.081 0.482-0.161 0.724-0.234 0.343-0.103 0.689-0.193 1.035-0.281 0.382-0.097 0.764-0.186 1.149-0.265 0.34-0.071 0.68-0.139 1.022-0.195 0.263-0.043 0.525-0.078 0.789-0.113 0.328-0.044 0.657-0.081 0.987-0.112 0.234-0.021 0.469-0.045 0.704-0.060 0.511-0.034 1.022-0.054 1.535-0.057 0.044 0 0.087-0.005 0.131-0.005 0.007 0 0.013 0.001 0.020 0.001s0.014-0.001 0.021-0.001c0.042 0 0.084 0.005 0.126 0.005 0.533 0.003 1.064 0.026 1.595 0.062 0.239 0.016 0.478 0.040 0.717 0.062 0.345 0.034 0.689 0.074 1.031 0.122 0.268 0.037 0.535 0.073 0.802 0.118 0.376 0.064 0.749 0.142 1.122 0.222 0.395 0.085 0.789 0.181 1.181 0.286 0.33 0.088 0.658 0.177 0.984 0.278 0.262 0.081 0.523 0.17 0.783 0.26 0.348 0.12 0.693 0.25 1.036 0.385 0.208 0.082 0.415 0.16 0.622 0.248 0.553 0.234 1.098 0.488 1.634 0.762 0.081 0.041 0.16 0.088 0.239 0.13 0.508 0.266 1.005 0.552 1.496 0.852 0.091 0.056 0.181 0.112 0.271 0.169 0.847 0.535 1.666 1.123 2.454 1.761 0.089 0.072 0.18 0.142 0.268 0.215 0.212 0.177 0.42 0.361 0.626 0.545 0.169 0.15 0.337 0.301 0.5 0.454 0.154 0.144 0.305 0.291 0.455 0.439 0.239 0.236 0.473 0.477 0.702 0.72 0.082 0.088 0.166 0.174 0.247 0.264 0.736 0.802 1.411 1.648 2.028 2.527 164.006 230.401 238.228 370.151 246.672 386.346l0.099-0.059c29.046 48.343 44.398 103.853 44.398 160.53 0 83.366-32.465 161.744-91.414 220.693zM737.136 413.37c-0.85-1.136-1.622-2.353-2.293-3.656-0.699-1.358-68.826-132.843-223.298-352.79-159.858 218.394-220.945 349.713-221.873 351.726-0.782 1.713-1.734 3.293-2.82 4.739-23.42 39.868-35.795 85.442-35.795 131.982 0 69.7 27.143 135.229 76.429 184.514 49.285 49.286 114.814 76.429 184.514 76.429s135.229-27.142 184.514-76.429c49.286-49.286 76.429-114.814 76.429-184.514 0-46.547-12.379-92.128-35.807-132.001zM512 734.682c-104.386 0-189.312-84.925-189.312-189.312s84.926-189.311 189.312-189.311c104.387 0 189.312 84.925 189.312 189.312s-84.925 189.311-189.312 189.311zM512 407.224c-76.174 0-138.146 61.972-138.146 138.146s61.971 138.147 138.146 138.147c76.174 0 138.146-61.972 138.146-138.146s-61.972-138.147-138.146-138.147z" />
<glyph unicode="&#xe90a;" glyph-name="qcode" d="M395.713 909.191h-382.579v-382.579h382.579v382.579zM318.646 603.678h-228.446v228.447h228.446v-228.447zM13.134-55.857h382.579v382.579h-382.579v-382.579zM90.2 249.656h228.446v-228.446h-228.446v228.446zM628.287 909.191v-382.579h382.579v382.579h-382.579zM933.8 603.678h-228.446v228.447h228.446v-228.447zM475.531 909.191h77.066v-191.289h-77.066v191.289zM475.531 463.652h-136.586v-77.066h136.586v-130.394h77.066v372.258h-77.066zM933.8 21.209h-322.371v-77.066h399.437v372.257h-77.066zM13.134 463.652h186.129v-77.066h-186.129v77.066zM611.601 130.272h77.066v109.062h108.891v77.066h-186.129v-77.066h0.172zM475.531 130.272h77.066v-186.129h-77.066v186.129zM781.044 162.612h77.066v-77.066h-77.066v77.066zM738.497 456.771h272.369v-77.066h-272.369v77.066z" />
<glyph unicode="&#xe90b;" glyph-name="search" d="M1017.889 10.211l-286.916 286.916c47.882 65.994 76.12 147.167 76.12 234.938 0 221.185-179.306 400.491-400.491 400.491s-400.491-179.306-400.491-400.491 179.306-400.491 400.491-400.491c87.771 0 168.944 28.238 234.938 76.12l286.916-286.916 89.433 89.433zM406.579 225.813c-169.152 0-306.276 137.124-306.276 306.276s137.124 306.276 306.276 306.276 306.276-137.124 306.276-306.276-137.125-306.276-306.276-306.276z" />
<glyph unicode="&#xe90c;" glyph-name="add" d="M450.125-68.354l-0.004 433.143h-433.139v123.754h433.139v433.148l123.758-0.004-0.004-433.143h433.148l-0.004-123.758h-433.14v-433.139h-123.754z" />
<glyph unicode="&#xe90d;" glyph-name="point" d="M827.022 426.875c-2.522-7.208-4.792-11.876-9.641-23.413l-53.418-86.040c-94.341-123.719-176.167-216.247-223.767-360.441l-4.709-7.569c-12.969-12.676-34.003-12.676-46.972 0l-4.709 7.569c-47.607 144.195-136.653 252.119-223.774 360.441l-53.418 86.040c-4.31 10.213-6.846 16.594-9.641 23.413-21.438 44.209-33.787 93.463-33.787 145.646 0 188.271 156.166 340.908 348.812 340.908 192.653 0 348.819-152.636 348.819-340.908-0.002-52.183-12.357-101.436-33.795-145.646zM511.997 704.131c-77.054 0-139.528-62.466-139.528-139.528 0-77.054 62.473-139.528 139.528-139.528 77.061 0 139.528 62.473 139.528 139.528-0.001 77.061-62.467 139.528-139.528 139.528z" />
<glyph unicode="&#xe90e;" glyph-name="success" d="M969.467 426.659c0 126.359-51.196 240.723-133.981 323.504-82.783 82.749-197.154 133.975-323.502 133.975-126.288 0-240.719-51.225-323.503-133.975-82.72-82.78-133.981-197.145-133.981-323.504 0-126.342 51.261-240.707 133.981-323.487 82.784-82.779 197.216-133.976 323.503-133.976 126.348 0 240.719 51.197 323.501 133.976 82.786 82.78 133.982 197.145 133.982 323.487v0zM857.083 771.726c88.277-88.301 142.917-210.331 142.917-345.067 0-134.782-54.641-256.716-142.917-345.019-88.307-88.365-210.311-142.973-345.099-142.973-134.727 0-256.792 54.608-345.036 142.973-88.307 88.241-142.948 210.238-142.948 345.019 0 134.736 54.64 256.765 142.949 345.067 88.243 88.303 210.309 142.941 345.035 142.941 134.788 0 256.792-54.638 345.099-142.941zM440.339 154.12c-5.709 0-11.388 2.17-15.73 6.515l-227.253 227.242c-8.656 8.685-8.656 22.773 0 31.398 8.751 8.751 22.805 8.751 31.461 0l211.521-211.48 397.505 397.534c8.719 8.688 22.776 8.688 31.462 0 8.689-8.686 8.689-22.775 0-31.46l-413.234-413.234c-4.345-4.345-10.053-6.515-15.732-6.515z" />
<glyph unicode="&#xe90f;" glyph-name="radio" d="M512 914.917c-269.654-0.002-488.25-218.599-488.25-488.25-0.003-269.654 218.596-488.253 488.25-488.25 269.651 0 488.248 218.597 488.25 488.25 0 269.651-218.601 488.248-488.25 488.25zM512 8.171c-231.132-0.005-418.501 187.364-418.501 418.496s187.369 418.501 418.501 418.501c231.129-0.003 418.498-187.372 418.501-418.501 0-231.132-187.369-418.501-418.501-418.496zM708 426.667c0-108.248-87.752-196-196-196s-196 87.752-196 196c0 108.248 87.752 196 196 196s196-87.752 196-196z" />
<glyph unicode="&#xe910;" glyph-name="circle" d="M512-61.583c-269.654-0.003-488.253 218.596-488.25 488.25 0 269.651 218.596 488.248 488.25 488.25 269.649-0.002 488.25-218.599 488.25-488.25-0.002-269.654-218.599-488.25-488.25-488.25zM930.501 426.667c-0.003 231.129-187.372 418.498-418.501 418.501-231.132 0-418.501-187.369-418.501-418.501s187.369-418.501 418.501-418.496c231.132-0.005 418.501 187.364 418.501 418.496z" />
<glyph unicode="&#xe911;" glyph-name="back" d="M806.298-2.852l-74.859-74.862-513.737 509.819 498.94 498.943 74.274-74.276-422.122-422.122 437.504-437.502z" />
<glyph unicode="&#xe912;" glyph-name="down" d="M14.736 633.039l76.38 75.032 420.887-413.444 420.881 413.444 76.38-75.032-497.261-487.776-497.267 487.776z" />
<glyph unicode="&#xe913;" glyph-name="go" d="M305.628-70.597l-75.032 76.38 413.444 420.887-413.444 420.881 75.032 76.38 487.776-497.262-487.776-497.266z" />
<glyph unicode="&#xe914;" glyph-name="important" d="M512-61.583c-269.654-0.003-488.253 218.596-488.25 488.25 0 269.651 218.596 488.248 488.25 488.25 269.649-0.002 488.25-218.599 488.25-488.25-0.002-269.654-218.599-488.25-488.25-488.25zM930.501 426.667c-0.003 231.129-187.372 418.498-418.501 418.501-231.132 0-418.501-187.369-418.501-418.501s187.369-418.501 418.501-418.496c231.132-0.005 418.501 187.364 418.501 418.496zM546.877 583.802v-446.135h-69.749l-0.002 446.138 69.751-0.003zM477.125 647.553v68.117l69.752-0.003-0.002-68.114h-69.75z" />
<glyph unicode="&#xe915;" glyph-name="add-circle" d="M512-61.583c-269.654-0.003-488.253 218.596-488.25 488.25 0 269.651 218.596 488.248 488.25 488.25 269.649-0.002 488.25-218.599 488.25-488.25-0.002-269.654-218.599-488.25-488.25-488.25zM930.501 426.667c-0.003 231.129-187.372 418.498-418.501 418.501-231.132 0-418.501-187.369-418.501-418.501s187.369-418.501 418.501-418.496c231.132-0.005 418.501 187.364 418.501 418.496zM477.128 147.667l-0.002 244.125h-244.123v69.749h244.123v244.128l69.751-0.002-0.002-244.125h244.128l-0.003-69.752h-244.123v-244.123h-69.749z" />
<glyph unicode="&#xe916;" glyph-name="fail" d="M857.245 81.424c-190.672-190.676-499.818-190.676-690.49 0-190.672 190.672-190.672 499.815 0 690.49 190.672 190.669 499.818 190.672 690.49 0 190.672-190.676 190.672-499.818 0-690.49zM807.925 722.594c-163.435 163.431-428.415 163.431-591.85 0-163.435-163.435-163.435-428.415 0-591.85s428.415-163.435 591.846 0.003c163.439 163.432 163.439 428.412 0.004 591.847zM684.624 204.728l-172.624 172.621-172.621-172.621-49.32 49.32 172.621 172.621-172.624 172.624 49.324 49.32 172.62-172.624 172.624 172.624 49.32-49.324-172.62-172.62 172.621-172.621-49.321-49.32z" />
<glyph unicode="&#xe917;" glyph-name="check" d="M830.784 687.677l-346.355-579.792-291.213 282.347 72.73 73.492 190.984-193.004 288.352 474.729 85.502-57.772z" />
<glyph unicode="&#xe918;" glyph-name="check-box" d="M25.579 913.088v-972.841h972.841v972.841h-972.841zM923.624 15.080h-823.173v823.174h823.173v-823.174zM830.784 687.677l-346.355-579.792-291.213 282.347 72.73 73.492 190.984-193.004 288.352 474.729 85.502-57.772z" />
<glyph unicode="&#xe919;" glyph-name="box" d="M25.579 913.088v-972.841h972.841v972.841h-972.841zM923.624 15.080h-823.173v823.174h823.173v-823.174z" />
</font>
</defs>
</svg>
